<svg width="20" height="20" viewBox="0 0 20 20" fill="none" xmlns="http://www.w3.org/2000/svg">
<g clip-path="url(#clip0_350_2974)">
<path d="M19.6 14.87C18.35 13.33 17.66 11.41 17.66 9.44V7.56C17.66 3.39 14.24 0 10 0C5.76002 0 2.34002 3.39 2.34002 7.56V9.44C2.34002 11.42 1.66002 13.33 0.400015 14.87C-0.549985 16.04 0.290015 17.78 1.81002 17.78H6.90002C7.54002 19.1 8.91002 20 10.49 20C12.07 20 13.44 19.1 14.08 17.78H18.19C19.71 17.78 20.56 16.04 19.6 14.87ZM2.25002 15.78C3.62002 13.95 4.37002 11.72 4.37002 9.44V7.56C4.37002 4.49 6.90002 2 10 2C13.1 2 15.63 4.49 15.63 7.56V9.44C15.63 11.72 16.38 13.95 17.75 15.78H2.25002Z" fill="#2C2E49"/>
</g>
<defs>
<clipPath id="clip0_350_2974">
<rect width="20" height="20" fill="white"/>
</clipPath>
</defs>
</svg>
