<svg width="20" height="21" viewBox="0 0 20 21" fill="none" xmlns="http://www.w3.org/2000/svg">
<path d="M9.8 2.5C10.35 2.5 10.8 2.95 10.8 3.5V10.3C10.8 10.85 10.35 11.3 9.8 11.3H3C2.45 11.3 2 10.85 2 10.3V3.5C2 2.95 2.45 2.5 3 2.5H9.8ZM9.8 0.5H3C1.34 0.5 0 1.84 0 3.5V10.3C0 11.96 1.34 13.3 3 13.3H9.8C11.46 13.3 12.8 11.96 12.8 10.3V3.5C12.8 1.84 11.46 0.5 9.8 0.5ZM10.78 16.69L10.8 16.71L10.78 18.5L2 18.48L2.02 16.69H10.77M10.77 14.69H2.02C0.9 14.69 0 15.6 0 16.71V18.48C0 19.6 0.91 20.5 2.02 20.5H10.77C11.89 20.5 12.79 19.59 12.79 18.48V16.71C12.79 15.59 11.88 14.69 10.77 14.69ZM17.99 16.69V18.5H16.26V16.69H17.99ZM18.64 14.69H15.61C14.86 14.69 14.26 15.3 14.26 16.04V19.15C14.26 19.9 14.87 20.5 15.61 20.5H18.64C19.39 20.5 19.99 19.89 19.99 19.15V16.04C19.99 15.29 19.38 14.69 18.64 14.69ZM17.99 2.5V11.3H16.26V2.5H17.98M17.98 0.5H16.26C15.15 0.5 14.25 1.4 14.25 2.51V11.29C14.25 12.4 15.15 13.3 16.26 13.3H17.98C19.09 13.3 19.99 12.4 19.99 11.29V2.51C19.99 1.4 19.09 0.5 17.98 0.5Z" fill="#FCF0F0"/>
</svg>
