<svg width="20" height="21" viewBox="0 0 20 21" fill="none" xmlns="http://www.w3.org/2000/svg">
<g clip-path="url(#clip0_672_567)">
<path d="M16.32 4.18C16.74 3.76 17.44 3.79 17.82 4.26C19.19 5.97 20 8.14 20 10.5C20 16.4 14.89 21.1 8.86 20.44C4.21 19.92 0.47 16.09 0.04 11.44C-0.21 8.72 0.64 6.19 2.19 4.26C2.56 3.8 3.26 3.76 3.68 4.19C4.04 4.55 4.08 5.11 3.76 5.51C2.66 6.88 2 8.62 2 10.51C2 15.45 6.5 19.35 11.61 18.35C14.74 17.74 17.25 15.21 17.85 12.08C18.33 9.59 17.64 7.25 16.25 5.51C15.93 5.11 15.96 4.54 16.32 4.19V4.18ZM11 10.5V1.5C11 0.95 10.55 0.5 10 0.5C9.45 0.5 9 0.95 9 1.5V10.5C9 11.05 9.45 11.5 10 11.5C10.55 11.5 11 11.05 11 10.5Z" fill="white"/>
</g>
<defs>
<clipPath id="clip0_672_567">
<rect width="20" height="20" fill="white" transform="translate(0 0.5)"/>
</clipPath>
</defs>
</svg>
