<svg width="20" height="21" viewBox="0 0 20 21" fill="none" xmlns="http://www.w3.org/2000/svg">
<g clip-path="url(#clip0_350_720)">
<path d="M3.16 16.1899C3.8 16.1899 4.32 16.7099 4.32 17.3499C4.32 17.9899 3.8 18.5099 3.16 18.5099C2.52 18.5099 2 17.9899 2 17.3499C2 16.7099 2.52 16.1899 3.16 16.1899ZM3.16 14.1899C1.42 14.1899 0 15.5999 0 17.3499C0 19.0999 1.41 20.5099 3.16 20.5099C4.91 20.5099 6.32 19.0999 6.32 17.3499C6.32 15.5999 4.91 14.1899 3.16 14.1899Z" fill="#FCF0F0"/>
<path d="M16.84 16.1899C17.48 16.1899 18 16.7099 18 17.3499C18 17.9899 17.48 18.5099 16.84 18.5099C16.2 18.5099 15.68 17.9899 15.68 17.3499C15.68 16.7099 16.2 16.1899 16.84 16.1899ZM16.84 14.1899C15.1 14.1899 13.68 15.5999 13.68 17.3499C13.68 19.0999 15.09 20.5099 16.84 20.5099C18.59 20.5099 20 19.0999 20 17.3499C20 15.5999 18.59 14.1899 16.84 14.1899Z" fill="#FCF0F0"/>
<path d="M14.69 17.34H8.02C8.02 14.65 5.84 12.48 3.16 12.48L6.1 3.37C6.46 2.25 7.5 1.5 8.67 1.5H10.85" stroke="#FCF0F0" stroke-width="2" stroke-linecap="round" stroke-linejoin="round"/>
</g>
<defs>
<clipPath id="clip0_350_720">
<rect width="20" height="20" fill="white" transform="translate(0 0.5)"/>
</clipPath>
</defs>
</svg>
